<svg xmlns="http://www.w3.org/2000/svg" viewBox="0 0 100 100">
  <defs>
    <linearGradient id="g" x1="0" y1="0" x2="1" y2="1">
      <stop offset="0%" stop-color="#2af5ff"/>
      <stop offset="100%" stop-color="#00a3ff"/>
    </linearGradient>
  </defs>
  <circle cx="50" cy="50" r="10" fill="url(#g)"/>
  <path d="M50 30c-11 0-20 9-20 20s9 20 20 20 20-9 20-20-9-20-20-20zm0 35c-8.3 0-15-6.7-15-15s6.7-15 15-15 15 6.7 15 15-6.7 15-15 15z" fill="url(#g)" opacity="0.7"/>
  <path d="M50 15c-19.3 0-35 15.7-35 35s15.7 35 35 35 35-15.7 35-35-15.7-35-35-35zm0 65c-16.6 0-30-13.4-30-30s13.4-30 30-30 30 13.4 30 30-13.4 30-30 30z" fill="url(#g)" opacity="0.4"/>
  <path d="M50 0C22.4 0 0 22.4 0 50s22.4 50 50 50 50-22.4 50-50S77.6 0 50 0zm0 94C25.7 94 6 74.3 6 50S25.7 6 50 6s44 19.7 44 44-19.7 44-44 44z" fill="url(#g)" opacity="0.15"/>
</svg>
